<svg id="图层_1" data-name="图层 1" xmlns="http://www.w3.org/2000/svg" xmlns:xlink="http://www.w3.org/1999/xlink" width="1024" height="500" viewBox="0 0 1024 500">
  <defs>
    <style>
      .cls-1, .cls-13, .cls-19, .cls-2, .cls-6, .cls-7, .cls-8 {
        fill: none;
      }

      .cls-13, .cls-14, .cls-15, .cls-2, .cls-6, .cls-7, .cls-8 {
        stroke: #4fd8eb;
      }

      .cls-2 {
        opacity: 0.07;
      }

      .cls-3 {
        fill: url(#未命名的渐变);
      }

      .cls-4 {
        fill: url(#grid);
      }

      .cls-5 {
        fill: url(#未命名的渐变_2);
      }

      .cls-15, .cls-6 {
        stroke-opacity: 0.2;
      }

      .cls-13, .cls-15, .cls-6, .cls-7, .cls-8 {
        stroke-width: 1.5px;
      }

      .cls-7 {
        stroke-opacity: 0.15;
      }

      .cls-8 {
        stroke-opacity: 0.12;
      }

      .cls-10, .cls-11, .cls-12, .cls-17, .cls-9 {
        fill: #4fd8eb;
      }

      .cls-9 {
        fill-opacity: 0.3;
      }

      .cls-10 {
        fill-opacity: 0.25;
      }

      .cls-11 {
        fill-opacity: 0.2;
      }

      .cls-12 {
        fill-opacity: 0.15;
      }

      .cls-13 {
        stroke-opacity: 0.1;
      }

      .cls-14, .cls-15, .cls-16, .cls-21 {
        fill: #97f0ff;
      }

      .cls-14 {
        fill-opacity: 0.12;
        stroke-opacity: 0.3;
        stroke-width: 2px;
      }

      .cls-15 {
        fill-opacity: 0.08;
      }

      .cls-16 {
        fill-opacity: 0.9;
      }

      .cls-18 {
        fill: #fff;
      }

      .cls-19 {
        stroke: #97f0ff;
        stroke-linecap: round;
        stroke-opacity: 0.7;
        stroke-width: 3px;
      }

      .cls-20 {
        isolation: isolate;
      }
    </style>
    <linearGradient id="未命名的渐变" x1="-510.50098" y1="1273.454" x2="-509.50098" y2="1272.454" gradientTransform="matrix(1024, 0, 0, -500, 522753, 636727)" gradientUnits="userSpaceOnUse">
      <stop offset="0" stop-color="#004f58"/>
      <stop offset="0.5" stop-color="#006874"/>
      <stop offset="1" stop-color="#00363d"/>
    </linearGradient>
    <pattern id="grid" data-name="grid" width="40" height="40" patternTransform="matrix(1, 0, 0, -1, 31, 2061)" patternUnits="userSpaceOnUse" viewBox="0 0 40 40">
      <rect class="cls-1" width="40" height="40"/>
      <polyline class="cls-2" points="40 40 0 40 0 0"/>
    </pattern>
    <radialGradient id="未命名的渐变_2" data-name="未命名的渐变 2" cx="-509.77" cy="1273.21167" r="0.5" gradientTransform="matrix(700, 0, 0, -600, 357219, 764177)" gradientUnits="userSpaceOnUse">
      <stop offset="0" stop-color="#4fd8eb" stop-opacity="0.25"/>
      <stop offset="1" stop-color="#4fd8eb" stop-opacity="0"/>
    </radialGradient>
  </defs>
  <title>画板 1</title>
  <rect class="cls-3" width="1024" height="500"/>
  <rect class="cls-4" width="1024" height="500"/>
  <ellipse class="cls-5" cx="380" cy="250" rx="350" ry="300"/>
  <line class="cls-6" x1="120" y1="130" x2="200" y2="200"/>
  <line class="cls-6" x1="200" y1="200" x2="150" y2="310"/>
  <line class="cls-7" x1="200" y1="200" x2="310" y2="250"/>
  <line class="cls-7" x1="80" y1="350" x2="150" y2="310"/>
  <line class="cls-8" x1="150" y1="310" x2="260" y2="370"/>
  <circle class="cls-9" cx="120" cy="130" r="5"/>
  <circle class="cls-10" cx="200" cy="200" r="6"/>
  <circle class="cls-9" cx="150" cy="310" r="5"/>
  <circle class="cls-11" cx="80" cy="350" r="4"/>
  <circle class="cls-12" cx="310" cy="250" r="4"/>
  <circle class="cls-11" cx="260" cy="370" r="4"/>
  <line class="cls-7" x1="820" y1="120" x2="880" y2="200"/>
  <line class="cls-8" x1="880" y1="200" x2="950" y2="300"/>
  <line class="cls-7" x1="880" y1="200" x2="780" y2="280"/>
  <line class="cls-8" x1="780" y1="280" x2="850" y2="380"/>
  <line class="cls-13" x1="950" y1="300" x2="850" y2="380"/>
  <circle class="cls-11" cx="820" cy="120" r="4"/>
  <circle class="cls-11" cx="880" cy="200" r="5"/>
  <circle class="cls-12" cx="950" cy="300" r="4"/>
  <circle class="cls-11" cx="780" cy="280" r="4"/>
  <circle class="cls-12" cx="850" cy="380" r="5"/>
  <g>
    <circle class="cls-14" cx="512" cy="220" r="90"/>
    <circle class="cls-15" cx="512" cy="220" r="70"/>
    <path class="cls-16" d="M512,150a70,70,0,1,0,70,70A69.99991,69.99991,0,0,0,512,150Zm0,126a56,56,0,1,1,56-56A55.99738,55.99738,0,0,1,512,276Z"/>
    <path class="cls-17" d="M512,178a42,42,0,1,0,42,42A41.99483,41.99483,0,0,0,512,178Zm0,70a28,28,0,1,1,28-28A28.00509,28.00509,0,0,1,512,248Z"/>
    <circle class="cls-18" cx="512" cy="220" r="14"/>
    <line class="cls-19" x1="512" y1="140" x2="512" y2="164"/>
    <line class="cls-19" x1="512" y1="276" x2="512" y2="300"/>
    <line class="cls-19" x1="432" y1="220" x2="456" y2="220"/>
    <line class="cls-19" x1="568" y1="220" x2="592" y2="220"/>
  </g>
  <g class="cls-20">
    <path class="cls-18" d="M288.18262,390V351.46777h7.85205l11.18017,20.54,3.89991,8.32032h.25976q-.312-3.01466-.67578-6.6045a67.934,67.934,0,0,1-.36426-6.86328V351.46777h7.28028V390H309.7627l-11.07618-20.5918-3.8999-8.26855h-.25976q.25927,3.12012.624,6.60449a65.82709,65.82709,0,0,1,.36377,6.81152V390Z"/>
    <path class="cls-18" d="M340.18213,390.72754a14.84362,14.84362,0,0,1-7.332-1.81934,13.47017,13.47017,0,0,1-5.22608-5.252,16.37252,16.37252,0,0,1-1.9497-8.21582,17.029,17.029,0,0,1,1.11767-6.34473,14.46927,14.46927,0,0,1,3.06836-4.80957,13.907,13.907,0,0,1,4.36768-3.06836,12.32268,12.32268,0,0,1,5.01806-1.06543,11.87212,11.87212,0,0,1,6.708,1.79395,11.13806,11.13806,0,0,1,4.082,4.93945,17.79817,17.79817,0,0,1,1.37793,7.20215,18.60562,18.60562,0,0,1-.104,2.00195,10.31143,10.31143,0,0,1-.25977,1.53418H333.11035a9.08623,9.08623,0,0,0,1.40381,3.95215,6.86623,6.86623,0,0,0,2.80811,2.418,9.0568,9.0568,0,0,0,3.8999.80566,10.942,10.942,0,0,0,3.32812-.49414,14.39846,14.39846,0,0,0,3.17188-1.48144l2.6001,4.67969a19.18118,19.18118,0,0,1-4.78418,2.33984A16.85414,16.85414,0,0,1,340.18213,390.72754Zm-7.228-18.25195h11.9082a7.49116,7.49116,0,0,0-1.32617-4.65332,4.92449,4.92449,0,0,0-4.186-1.74219,6.02627,6.02627,0,0,0-5.14795,2.834A8.75113,8.75113,0,0,0,332.9541,372.47559Z"/>
    <path class="cls-18" d="M368.47021,390.72754a10.09569,10.09569,0,0,1-5.564-1.37793,7.69325,7.69325,0,0,1-3.06787-3.82129,15.79092,15.79092,0,0,1-.936-5.668V366.91211H354.794v-5.668l4.52441-.36426.88379-7.85156h6.292v7.85156h7.228v6.03223h-7.228v12.89551a5.52,5.52,0,0,0,1.04,3.69238,3.714,3.714,0,0,0,2.96387,1.19629,5.84707,5.84707,0,0,0,1.5083-.208q.78-.208,1.35156-.416l1.30029,5.56347q-1.19678.36476-2.73.72852A15.0523,15.0523,0,0,1,368.47021,390.72754Z"/>
    <path class="cls-18" d="M385.52539,390l-7.48779-29.12012h7.59179l3.22413,14.35254q.36327,2.18409.67627,4.26367.31126,2.08008.67578,4.26368h.25976q.468-2.18409.88428-4.29.41528-2.105.936-4.23731l3.53614-14.35254h6.75976l3.64014,14.35254q.51929,2.18409.936,4.26367.41529,2.08008.936,4.26368h.208q.41528-2.18409.7539-4.26368.33765-2.07861.75391-4.26367l3.06787-14.35254h7.124L412.82568,390h-8.99609l-3.06787-12.68848q-.468-2.07861-.8584-4.13379-.38966-2.05371-.85791-4.39355h-.25977q-.36474,2.33936-.728,4.41992-.36475,2.08008-.832,4.10742L394.26172,390Z"/>
    <path class="cls-18" d="M437.99316,390.72754a13.60706,13.60706,0,0,1-6.83789-1.81934,13.86151,13.86151,0,0,1-5.17382-5.22656,18.175,18.175,0,0,1,0-16.4834,13.87552,13.87552,0,0,1,5.17382-5.22656,13.76856,13.76856,0,0,1,12.08985-.7793,13.83109,13.83109,0,0,1,7.59228,7.77344,17.19641,17.19641,0,0,1,1.144,6.47461,16.16339,16.16339,0,0,1-1.97608,8.24121,13.86616,13.86616,0,0,1-5.17432,5.22656A13.60833,13.60833,0,0,1,437.99316,390.72754Zm0-6.23926a5.1491,5.1491,0,0,0,3.354-1.11816,6.78709,6.78709,0,0,0,2.08008-3.14649,16.64674,16.64674,0,0,0,0-9.56738,6.79207,6.79207,0,0,0-2.08008-3.14648,5.58934,5.58934,0,0,0-6.708,0,6.792,6.792,0,0,0-2.08008,3.14648,16.65765,16.65765,0,0,0,0,9.56738,6.787,6.787,0,0,0,2.08008,3.14649A5.14724,5.14724,0,0,0,437.99316,384.48828Z"/>
    <path class="cls-18" d="M459.36475,390V360.87988H465.605l.57178,5.14844h.15625a12.82387,12.82387,0,0,1,3.7959-4.36816,7.78943,7.78943,0,0,1,4.47216-1.50782,8.86652,8.86652,0,0,1,2.002.18164,9.24407,9.24407,0,0,1,1.37793.44239l-1.248,6.60351q-.83277-.20654-1.48193-.33789a8.64176,8.64176,0,0,0-1.63819-.12988,6.1643,6.1643,0,0,0-3.50976,1.2998,9.57952,9.57952,0,0,0-3.09424,4.41993V390Z"/>
    <path class="cls-18" d="M483.07666,390V348.50391h7.54v24.85644h.208l9.93213-12.48047h8.37207l-9.98438,12.01172L510.06494,390h-8.32031l-7.07178-12.11621-4.05615,4.73242V390Z"/>
    <path class="cls-18" d="M540.37988,390.72754a20.40452,20.40452,0,0,1-7.54-1.45508,19.67734,19.67734,0,0,1-6.5-4.16016l4.41993-5.30468a16.40467,16.40467,0,0,0,4.65429,3.09472,12.54683,12.54683,0,0,0,5.12207,1.16993,7.42745,7.42745,0,0,0,4.57617-1.19629,3.84994,3.84994,0,0,0,1.55958-3.22364,3.38611,3.38611,0,0,0-.75391-2.31445,6.99758,6.99758,0,0,0-2.05371-1.53418,32.28815,32.28815,0,0,0-3.0166-1.35156l-5.09571-2.23633a16.97441,16.97441,0,0,1-3.71777-2.10547,10.84927,10.84927,0,0,1-2.96387-3.35449,9.51233,9.51233,0,0,1-1.16992-4.83594,9.76445,9.76445,0,0,1,1.71582-5.668,12.0287,12.0287,0,0,1,4.73145-3.97754,15.36157,15.36157,0,0,1,6.86425-1.48242,17.26427,17.26427,0,0,1,6.6045,1.29981,16.2555,16.2555,0,0,1,5.51172,3.69238l-3.9004,4.78418a15.22451,15.22451,0,0,0-3.79589-2.34082,11.30457,11.30457,0,0,0-4.41993-.83106,6.68089,6.68089,0,0,0-3.97753,1.06543,3.47218,3.47218,0,0,0-1.48243,2.99024,3.1348,3.1348,0,0,0,.832,2.23633,7.26523,7.26523,0,0,0,2.1836,1.5332q1.35206.65186,2.96484,1.32617l5.04395,2.02832a15.84367,15.84367,0,0,1,4.082,2.33985,9.8121,9.8121,0,0,1,2.70312,3.37988,10.84871,10.84871,0,0,1,.96289,4.78418,10.53709,10.53709,0,0,1-1.69043,5.77148,12.13088,12.13088,0,0,1-4.83593,4.26465A16.55075,16.55075,0,0,1,540.37988,390.72754Z"/>
    <path class="cls-18" d="M574.0752,390.72754a14.44558,14.44558,0,0,1-7.22754-1.81934,13.08068,13.08068,0,0,1-5.09571-5.22656,16.88084,16.88084,0,0,1-1.87207-8.24121,15.66721,15.66721,0,0,1,2.05371-8.24219,13.99271,13.99271,0,0,1,5.46-5.22656,15.3754,15.3754,0,0,1,7.3584-1.81934,11.85551,11.85551,0,0,1,4.78321.90918,13.63739,13.63739,0,0,1,3.69238,2.36621l-3.63965,4.83594a7.8033,7.8033,0,0,0-2.13281-1.40332,5.7367,5.7367,0,0,0-2.28711-.46875,6.95465,6.95465,0,0,0-3.92676,1.11817,7.1943,7.1943,0,0,0-2.59961,3.14648,13.02646,13.02646,0,0,0,0,9.56738,7.33057,7.33057,0,0,0,2.54785,3.14649,6.43353,6.43353,0,0,0,3.71778,1.11816,7.084,7.084,0,0,0,3.0166-.67676,12.21688,12.21688,0,0,0,2.65137-1.66308l3.0166,5.04394a13.577,13.577,0,0,1-4.60254,2.67774A15.20509,15.20509,0,0,1,574.0752,390.72754Z"/>
    <path class="cls-18" d="M596.33105,390.72754a8.8872,8.8872,0,0,1-4.498-1.11719,7.72107,7.72107,0,0,1-3.01563-3.09472,9.2604,9.2604,0,0,1-1.0664-4.47168,8.11139,8.11139,0,0,1,4.0039-7.20215q4.00488-2.57373,12.74024-3.50977a7.33792,7.33792,0,0,0-.51953-2.57422,3.85856,3.85856,0,0,0-1.53418-1.79394,5.352,5.352,0,0,0-2.88575-.67578,10.80743,10.80743,0,0,0-4.0039.78027,25.47912,25.47912,0,0,0-4.00391,2.02734L588.84375,364a25.945,25.945,0,0,1,3.63965-1.92383,27.0801,27.0801,0,0,1,4.05566-1.37793,17.73038,17.73038,0,0,1,4.41992-.5459,12.10968,12.10968,0,0,1,6.18848,1.45606,8.99261,8.99261,0,0,1,3.74414,4.31543,17.69639,17.69639,0,0,1,1.248,7.07226V390h-6.24024l-.5205-3.12012h-.25977a18.5668,18.5668,0,0,1-4.05566,2.75586A10.4292,10.4292,0,0,1,596.33105,390.72754Zm2.54786-5.97949a5.83858,5.83858,0,0,0,2.93847-.75391,12.75,12.75,0,0,0,2.67774-2.10644v-5.82325a24.7765,24.7765,0,0,0-5.61621,1.19532,6.97807,6.97807,0,0,0-2.96387,1.84668,3.61445,3.61445,0,0,0-.88379,2.36523,2.88339,2.88339,0,0,0,1.06641,2.49609A4.59242,4.59242,0,0,0,598.87891,384.74805Z"/>
    <path class="cls-18" d="M620.92676,390V360.87988H627.167l.57129,3.84766h.15625a22.32408,22.32408,0,0,1,4.21192-3.22363,10.12774,10.12774,0,0,1,5.25195-1.35157q4.73145,0,6.86426,3.09375,2.13133,3.09375,2.13183,8.60547V390h-7.64355V372.78809q0-3.37939-.96192-4.73243a3.59723,3.59723,0,0,0-3.14648-1.35156,5.697,5.697,0,0,0-3.09375.832,17.43916,17.43916,0,0,0-2.93848,2.44434V390Z"/>
    <path class="cls-18" d="M655.24609,390V360.87988h6.24024l.57226,3.84766h.15625a22.262,22.262,0,0,1,4.21192-3.22363,10.12279,10.12279,0,0,1,5.252-1.35157q4.73145,0,6.86328,3.09375,2.13282,3.09375,2.13281,8.60547V390h-7.64453V372.78809q0-3.37939-.96191-4.73243a3.59419,3.59419,0,0,0-3.14551-1.35156,5.70029,5.70029,0,0,0-3.09472.832,17.43673,17.43673,0,0,0-2.9375,2.44434V390Z"/>
    <path class="cls-18" d="M702.25391,390.72754a14.84226,14.84226,0,0,1-7.332-1.81934,13.47121,13.47121,0,0,1-5.22657-5.252,16.37243,16.37243,0,0,1-1.94922-8.21582,17.03873,17.03873,0,0,1,1.11719-6.34473,14.477,14.477,0,0,1,3.06836-4.80957,13.90349,13.90349,0,0,1,4.36816-3.06836,12.32215,12.32215,0,0,1,5.01758-1.06543,11.871,11.871,0,0,1,6.708,1.79395,11.13487,11.13487,0,0,1,4.082,4.93945,17.78994,17.78994,0,0,1,1.37793,7.20215,18.6083,18.6083,0,0,1-.10351,2.00195,10.44149,10.44149,0,0,1-.25977,1.53418H695.18164a9.0803,9.0803,0,0,0,1.4043,3.95215,6.86494,6.86494,0,0,0,2.80761,2.418,9.06065,9.06065,0,0,0,3.9004.80566,10.94429,10.94429,0,0,0,3.32812-.49414,14.40879,14.40879,0,0,0,3.17188-1.48144l2.5996,4.67969a19.17264,19.17264,0,0,1-4.78417,2.33984A16.85122,16.85122,0,0,1,702.25391,390.72754Zm-7.22852-18.25195h11.9082a7.488,7.488,0,0,0-1.32617-4.65332,4.9235,4.9235,0,0,0-4.18554-1.74219,6.02628,6.02628,0,0,0-5.14844,2.834A8.751,8.751,0,0,0,695.02539,372.47559Z"/>
    <path class="cls-18" d="M720.76563,390V360.87988h6.24023l.57129,5.14844h.15625a12.82907,12.82907,0,0,1,3.7959-4.36816,7.78972,7.78972,0,0,1,4.47265-1.50782,8.86949,8.86949,0,0,1,2.002.18164,9.24407,9.24407,0,0,1,1.37793.44239l-1.24805,6.60351q-.83349-.20654-1.48242-.33789a8.63256,8.63256,0,0,0-1.6377-.12988,6.16188,6.16188,0,0,0-3.50976,1.2998,9.57649,9.57649,0,0,0-3.09473,4.41993V390Z"/>
  </g>
  <g class="cls-20">
    <path class="cls-21" d="M441.12012,422.05957l1.14013.16016q-.041.8203-.17041,1.79-.13036.97119-.33984,1.91992a12.31936,12.31936,0,0,1-.48975,1.69043l-1.18017-.41992a9.59982,9.59982,0,0,0,.48974-1.56055q.21021-.89942.3501-1.83985Q441.05981,422.86085,441.12012,422.05957Zm1.7998-3.85937h1.5v18.37988h-1.5Zm1.54,3.67968,1.06006-.46q.31934.58008.62988,1.25.30982.67091.5503,1.29a9.55791,9.55791,0,0,1,.35986,1.09961l-1.12012.56055a11.11185,11.11185,0,0,0-.35986-1.12989q-.24024-.65038-.53028-1.33984Q444.75978,422.46045,444.46,421.87988Zm6.66016-3.67968h1.5v6.66015q0,1.17919-.10987,2.43945a15.38552,15.38552,0,0,1-.44043,2.53028,11.07329,11.07329,0,0,1-.98974,2.49023,10.12682,10.12682,0,0,1-1.77,2.33008,12.22522,12.22522,0,0,1-2.79,2.0293,2.432,2.432,0,0,0-.27979-.38965c-.12011-.13965-.25-.28027-.39013-.41992a4.40286,4.40286,0,0,0-.39014-.35059,11.6276,11.6276,0,0,0,2.68994-1.8291,8.5805,8.5805,0,0,0,1.66016-2.10059,8.90267,8.90267,0,0,0,.87988-2.25976,14.39509,14.39509,0,0,0,.3501-2.29q.07983-1.13966.08008-2.17969Zm-5,9.17968h12.6997v1.46h-12.6997Zm1.08008-6h9.8999v6.82032h-1.48v-5.4004H447.2002Zm5.63964,6.29981a14.69085,14.69085,0,0,0,1.32032,3.25,10.51083,10.51083,0,0,0,2.0498,2.62988,8.24228,8.24228,0,0,0,2.79,1.7002,4.48177,4.48177,0,0,0-.39014.40039,4.94636,4.94636,0,0,0-.38965.50976q-.18017.26953-.30029.49024a9.31751,9.31751,0,0,1-2.8999-2.00977,11.90445,11.90445,0,0,1-2.1001-2.9707,19.32521,19.32521,0,0,1-1.3999-3.69922Z"/>
    <path class="cls-21" d="M466.14014,432.86035a1.5904,1.5904,0,0,1,.98.34961,9.86305,9.86305,0,0,0,1.27978.79,6.06187,6.06187,0,0,0,2.25.7002,23.87478,23.87478,0,0,0,2.91016.16015q1.13964,0,2.43994-.04,1.3-.041,2.5498-.12011,1.25025-.08058,2.21045-.18067-.08056.18018-.17041.4502c-.06.18066-.11328.36328-.15966.5498a3.41258,3.41258,0,0,0-.09034.48047q-.53979.03955-1.38964.08008-.85035.03956-1.84034.07031-.98949.02929-1.92968.04981-.94044.019-1.66016.01953a19.95175,19.95175,0,0,1-3.08984-.21,7.08093,7.08093,0,0,1-2.37012-.79q-.62037-.3794-1.08985-.7295a1.46339,1.46339,0,0,0-.83007-.35058,1.497,1.497,0,0,0-.82032.32031,6.95965,6.95965,0,0,0-.96972.83984q-.50977.52-1.0503,1.14063l-.93994-1.26074a14.057,14.057,0,0,1,2.01026-1.66016A3.30327,3.30327,0,0,1,466.14014,432.86035Zm.6997-7.52051v8.17969H465.3999v-6.7793H462.48v-1.40039Zm-3.96-5.54,1.14014-.78027q.55958.48047,1.16992,1.09082.61011.60938,1.14014,1.18945a9.0916,9.0916,0,0,1,.8501,1.06055l-1.2002.89942a9.64988,9.64988,0,0,0-.81982-1.08985q-.52076-.60937-1.12012-1.22949Q463.44019,420.3208,462.87988,419.7998Zm10.02,7.94043,1.12012.43946A12.91791,12.91791,0,0,1,472.5498,430.25a14.37241,14.37241,0,0,1-1.88964,1.83008,12.95365,12.95365,0,0,1-2.04,1.36035q-.12012-.18018-.28028-.39063c-.10693-.13964-.21972-.27636-.33984-.41015a2.87706,2.87706,0,0,0-.35986-.33985,10.7938,10.7938,0,0,0,2.00976-1.14941A13.533,13.533,0,0,0,471.5,429.5498,9.64266,9.64266,0,0,0,472.8999,427.74023Zm-5.02-7.46h12.54v1.29981h-12.54Zm.8003,2.93946H479.5v4.98047H468.68018Zm1.3999,1.2207V427h7.98v-2.55957Zm3.18017-6.2207h1.46v15.7998h-1.46Zm.35987,10.40039.87988-.87989q.98.61964,2.04,1.39942,1.05981.78077,2,1.55078a16.263,16.263,0,0,1,1.54,1.40918l-.96,1q-.58081-.61964-1.5-1.41992-.92065-.79982-1.97022-1.60938Q474.60035,429.26025,473.62012,428.62012Z"/>
    <path class="cls-21" d="M491.62012,419.05957h4.6997v1.36035H492.96v16.17969h-1.33984Zm4.31982,0h.24024L496.41992,419l.96.58008q-.27978.82031-.60986,1.75-.33033.93018-.68018,1.83984-.35008.91113-.68994,1.71a6.83028,6.83028,0,0,1,1.4502,2.31055,6.488,6.488,0,0,1,.3501,2.00977,4.6324,4.6324,0,0,1-.19043,1.39941,1.68545,1.68545,0,0,1-.60987.90039,1.82319,1.82319,0,0,1-.46972.23047,3.18525,3.18525,0,0,1-.57032.12988,11.19142,11.19142,0,0,1-1.35986.04,4.26064,4.26064,0,0,0-.10986-.66016,2.4898,2.4898,0,0,0-.25-.66015c.22656.01367.43652.01953.62988.01953h.52978a1.24189,1.24189,0,0,0,.64014-.17969.98467.98467,0,0,0,.31006-.5498,3.42557,3.42557,0,0,0,.08984-.81055,5.37374,5.37374,0,0,0-.35986-1.8291,6.84354,6.84354,0,0,0-1.43994-2.1709q.27978-.67968.54-1.44922.25927-.77051.52-1.52051.25928-.75.46972-1.42968.21021-.6797.37012-1.17969Zm1.83985,12.52051,1.16015.5q-.16039.60059-.41015,1.30957-.24977.71044-.53956,1.40039a7.331,7.331,0,0,1-.65039,1.22949l-1.13964-.73926a6.78836,6.78836,0,0,0,.62988-1.12011q.2893-.64014.54-1.32032Q497.61987,432.16016,497.77979,431.58008Zm3.04-13.2002,1.40039.24024a18.16943,18.16943,0,0,1-1.69042,2.5498,16.24081,16.24081,0,0,1-2.36963,2.42969c-.08008-.09277-.17725-.19922-.29-.31934a4.00558,4.00558,0,0,0-.3501-.33007,2.30474,2.30474,0,0,0-.35986-.25,11.58557,11.58557,0,0,0,2.1997-2.14063A15.85584,15.85584,0,0,0,500.81982,418.37988Zm-2.61962,4.7002H508V430h-9.91992v-1.17969h8.5v-4.56054H498.2002Zm.46,2.82031h8.65966V427.04h-8.65966Zm.8999,5.73926h1.35986v3q0,.32081.16992.41015a1.9315,1.9315,0,0,0,.75.08985H504.52a.90537.90537,0,0,0,.48975-.10938.707.707,0,0,0,.24023-.48047,7.74353,7.74353,0,0,0,.08984-1.12988,2.07087,2.07087,0,0,0,.58008.29981,4.90715,4.90715,0,0,0,.66016.20019,6.34717,6.34717,0,0,1-.27,1.54981,1.28374,1.28374,0,0,1-.58008.74023,2.27842,2.27842,0,0,1-1.06982.21h-2.94a4.55695,4.55695,0,0,1-1.33007-.15039,1.00688,1.00688,0,0,1-.64991-.53906,2.66689,2.66689,0,0,1-.18017-1.09082Zm1.54-11.79981H505.5V421h-5.31982Zm-.28028,10.96.92041-.78027q.55957.36036,1.16993.81055.60938.4497,1.1499.91015.53979.46.87988.79981L504,433.46a10.17714,10.17714,0,0,0-.87988-.84961q-.54052-.47021-1.14014-.95019Q501.38013,431.17968,500.81982,430.7998Zm4.26026-10.96h.31982l.2002-.05957.91992.59961a10.9784,10.9784,0,0,1-.81982,1.23047q-.48048.62988-.97022,1.19922-.49.57129-.93018,1.03027a4.99641,4.99641,0,0,0-.48-.32031c-.1997-.11914-.373-.21973-.52-.2998a9.71886,9.71886,0,0,0,.83008-.96q.42993-.55957.82032-1.12989a10.23729,10.23729,0,0,0,.62988-1.03027Zm.69971,11.96,1.18017-.46q.46.60059.8999,1.31055.44019.709.79,1.39941a11.99486,11.99486,0,0,1,.5503,1.23047l-1.24024.54a9.80191,9.80191,0,0,0-.52-1.26074q-.34057-.69873-.77-1.41992Q506.24,432.42042,505.77979,431.7998Z"/>
    <path class="cls-21" d="M516.7998,424.37988l.96.41992q-.36036,1.07959-.85938,2.23047-.501,1.14992-1.08984,2.25-.5918,1.1001-1.23047,2.04981a14.19584,14.19584,0,0,1-1.28028,1.65039,5.27623,5.27623,0,0,0-.3496-.73047,7.82544,7.82544,0,0,0-.43018-.69043,10.93538,10.93538,0,0,0,1.23-1.43945q.60938-.84082,1.18945-1.81055T516,426.33008A18.26586,18.26586,0,0,0,516.7998,424.37988Zm3.58008-5.89941.87989,1.21973a21.34411,21.34411,0,0,1-2.32032.70019q-1.29931.31933-2.68945.56934-1.39014.25049-2.68945.43066a3.09814,3.09814,0,0,0-.16992-.60059c-.0879-.22656-.16993-.41992-.25-.58007q1.25976-.19923,2.5996-.46,1.33887-.25929,2.55957-.58985A16.92447,16.92447,0,0,0,520.37988,418.48047Zm-7.20019,5.35937H521.46v1.40039h-8.28027Zm3.541-3.97949h1.459v16.69922h-1.459Zm1.37891,5.54c.13281.11914.31055.29688.53027.5293q.3296.3501.74024.80078.40869.4497.80957.88965.40137.43946.71094.7998.30908.36036.44921.54l-.91992,1.21973q-.19922-.35889-.58984-.92969-.38965-.56982-.85938-1.19043-.47167-.61964-.89062-1.15918-.42042-.54053-.67969-.84082Zm2.62109,10a4.14754,4.14754,0,0,0-.13086-.44043c-.06054-.17285-.123-.36035-.18945-.55957a3.98014,3.98014,0,0,0-.20019-.5q.33984-.12012.70019-.88086a20.20549,20.20549,0,0,0,.7793-1.96q.16113-.45849.45019-1.36914.29-.91113.63965-2.16016.3501-1.2495.7207-2.71.36915-1.46044.71-3.01074.33984-1.54835.5791-3.06934l1.60058.2793q-.35887,2.02149-.83008,4.08008-.47021,2.061-1.03027,4.07031-.55957,2.00978-1.16015,3.84961-.59913,1.84131-1.21875,3.40039v.04c-.1875.08008-.35352.15332-.5.21973a3.16785,3.16785,0,0,0-.41993.23047c-.13476.08691-.25.16992-.35058.25A.32276.32276,0,0,0,520.7207,435.40039Zm0,0-.06054-1.34082.90039-.51953,7.97949-1.16016c.02637.21387.05957.45313.10059.71973.03906.26758.08007.48047.11914.64062q-2.27931.36036-3.80957.60938-1.53076.25049-2.4795.41016-.95214.16113-1.49023.2705-.54052.10988-.81055.18946A2.20814,2.20814,0,0,0,520.7207,435.40039Zm5.61914-8.41992,1.38086-.52051q.51857,1.1001,1.03907,2.29981.52,1.1997.99023,2.39062.46875,1.18945.83984,2.2793.36915,1.09131.58985,1.95019l-1.5.62012q-.19922-.85986-.57031-1.96-.36915-1.1001-.81934-2.32031-.44971-1.21875-.9502-2.43946Q526.83887,428.06007,526.33984,426.98047Z"/>
    <path class="cls-21" d="M541.51953,426.63965H559.46v1.44043H541.51953Zm4.82031-6.39942h1.51954v5.54a27.37375,27.37375,0,0,1-.15918,2.93946,12.33142,12.33142,0,0,1-.6709,2.89062,9.62977,9.62977,0,0,1-1.5293,2.69922,10.67379,10.67379,0,0,1-2.74023,2.37012,3.084,3.084,0,0,0-.33985-.39942c-.13281-.13379-.27734-.26757-.42969-.40039a3.15838,3.15838,0,0,0-.42968-.32031,10.38544,10.38544,0,0,0,2.58008-2.15918,8.46721,8.46721,0,0,0,1.42968-2.41992,10.89843,10.89843,0,0,0,.61914-2.58008,23.07234,23.07234,0,0,0,.15039-2.62012ZM542.25977,419.5h16.58007v1.44043H542.25977Zm11.20019.75977H555v16.36035h-1.54Z"/>
    <path class="cls-21" d="M563.24023,424.86035l.85938-1.06055q.55957.28125,1.20019.6504.64014.37061,1.2295.71a10.46034,10.46034,0,0,1,.9707.62011L566.62012,427q-.37939-.3003-.96-.66992-.58008-.37061-1.22071-.77051Q563.80078,425.15967,563.24023,424.86035Zm.41993,10.62012q.43945-.7998.96972-1.87012.52881-1.07081,1.08008-2.27051.54932-1.1997.99024-2.33984l1.20019.83984q-.40137,1.06056-.89062,2.2002T566,434.28027q-.52,1.09865-1,2.04ZM564.2207,419.46l.87891-1.04q.54053.32081,1.17969.71.64159.38966,1.2207.77051.58008.37939.96.65918l-.89941,1.2002q-.38086-.31934-.96094-.71973-.58008-.3999-1.209-.82031Q564.76073,419.80078,564.2207,419.46Zm5.01953-.28027h1.46v5.48047q0,1.31982-.09082,2.85937a27.13191,27.13191,0,0,1-.36915,3.13086,19.70212,19.70212,0,0,1-.81054,3.09961A11.02091,11.02091,0,0,1,568,436.51953a2.77411,2.77411,0,0,0-.34961-.2793c-.1543-.10742-.31055-.207-.4707-.2998a4.43294,4.43294,0,0,0-.41992-.2207,10.8239,10.8239,0,0,0,1.33984-2.60938,17.15741,17.15741,0,0,0,.75-2.87988,24.4048,24.4048,0,0,0,.32031-2.90039q.07032-1.42969.07031-2.66992Zm.5,0H581.5V420.54H569.74023Zm2.83985,11.7207,1.33984.37988q-.31934.71925-.75,1.4795t-.89062,1.44043a14.10375,14.10375,0,0,1-.89942,1.20019,2.05011,2.05011,0,0,0-.33984-.26074c-.14746-.09277-.29688-.18652-.4502-.2793q-.23-.14062-.41015-.24023A11.70288,11.70288,0,0,0,571.5,432.90039,14.70236,14.70236,0,0,0,572.58008,430.90039Zm-.7207-8.04h8.88085v6.91992h-8.88085ZM575.46,429.2002h1.44043V435.04a2.17629,2.17629,0,0,1-.14062.86035.92876.92876,0,0,1-.53907.47949,4.09361,4.09361,0,0,1-1.07031.17969c-.44726.02734-1.00391.0332-1.66992.02051a3.76622,3.76622,0,0,0-.16016-.63965,4.98167,4.98167,0,0,0-.25976-.64063q.71923.02052,1.29883.02051h.78125q.31934-.02051.31933-.32031Zm-2.23926-5.18067v1.7207h6.11914v-1.7207Zm0,2.84082v1.75977h6.11914v-1.75977Zm2.25977-6.04,1.66016.33985q-.30177.65917-.61133,1.33007a11.182,11.182,0,0,1-.58985,1.12989l-1.17968-.36035q.19921-.52.41015-1.21973C575.31055,421.57324,575.41309,421.167,575.48047,420.82031Zm2.75976,10.41992,1.29981-.5q.3999.61964.83984,1.31934.44092.70165.82032,1.37012.37939.67089.62011,1.15039l-1.38086.62012q-.21972-.49951-.58984-1.18067-.36913-.67968-.78906-1.40918Q578.63868,431.8794,578.24023,431.24023Z"/>
  </g>
</svg>
